<svg width="66" height="66" viewBox="0 0 66 66" fill="none" xmlns="http://www.w3.org/2000/svg">
<path d="M9.00011 -1.05351e-05C8.23249 -1.05351e-05 7.46402 0.292395 6.87902 0.878896L0.879018 6.8789C-0.293982 8.0519 -0.293982 9.95108 0.879018 11.1211L22.7579 33L0.879018 54.8789C-0.293982 56.0519 -0.293982 57.9511 0.879018 59.1211L6.87902 65.1211C8.05202 66.2941 9.95121 66.2941 11.1212 65.1211L33.0001 43.2422L54.879 65.1211C56.049 66.2941 57.9512 66.2941 59.1212 65.1211L65.1212 59.1211C66.2942 57.9481 66.2942 56.0489 65.1212 54.8789L43.2423 33L65.1212 11.1211C66.2942 9.95108 66.2942 8.0489 65.1212 6.8789L59.1212 0.878896C57.9482 -0.294105 56.049 -0.294105 54.879 0.878896L33.0001 22.7578L11.1212 0.878896C10.5347 0.292395 9.76774 -1.05351e-05 9.00011 -1.05351e-05Z" fill="white"/>
</svg>
