<svg width="37" height="37" viewBox="0 0 37 37" fill="none" xmlns="http://www.w3.org/2000/svg">
<path d="M4.62498 10.7917H32.375C32.7839 10.7917 33.176 10.6293 33.4651 10.3402C33.7542 10.051 33.9166 9.65892 33.9166 9.25004C33.9166 8.84117 33.7542 8.44904 33.4651 8.15992C33.176 7.8708 32.7839 7.70837 32.375 7.70837H4.62498C4.2161 7.70837 3.82398 7.8708 3.53486 8.15992C3.24574 8.44904 3.08331 8.84117 3.08331 9.25004C3.08331 9.65892 3.24574 10.051 3.53486 10.3402C3.82398 10.6293 4.2161 10.7917 4.62498 10.7917ZM32.375 16.9584H4.62498C4.2161 16.9584 3.82398 17.1208 3.53486 17.4099C3.24574 17.699 3.08331 18.0912 3.08331 18.5C3.08331 18.9089 3.24574 19.301 3.53486 19.5902C3.82398 19.8793 4.2161 20.0417 4.62498 20.0417H32.375C32.7839 20.0417 33.176 19.8793 33.4651 19.5902C33.7542 19.301 33.9166 18.9089 33.9166 18.5C33.9166 18.0912 33.7542 17.699 33.4651 17.4099C33.176 17.1208 32.7839 16.9584 32.375 16.9584ZM32.375 26.2084H4.62498C4.2161 26.2084 3.82398 26.3708 3.53486 26.6599C3.24574 26.949 3.08331 27.3412 3.08331 27.75C3.08331 28.1589 3.24574 28.551 3.53486 28.8402C3.82398 29.1293 4.2161 29.2917 4.62498 29.2917H32.375C32.7839 29.2917 33.176 29.1293 33.4651 28.8402C33.7542 28.551 33.9166 28.1589 33.9166 27.75C33.9166 27.3412 33.7542 26.949 33.4651 26.6599C33.176 26.3708 32.7839 26.2084 32.375 26.2084Z" fill="black"/>
</svg>
